<?xml version="1.0" encoding="UTF-8" standalone="no"?>
<svg
   xmlns:dc="http://purl.org/dc/elements/1.1/"
   xmlns:cc="http://creativecommons.org/ns#"
   xmlns:rdf="http://www.w3.org/1999/02/22-rdf-syntax-ns#"
   xmlns:svg="http://www.w3.org/2000/svg"
   xmlns="http://www.w3.org/2000/svg"
   id="svg857"
   version="1.1"
   viewBox="0 0 28.990278 15.147693"
   height="15.147693mm"
   width="28.990276mm">
  <title
     id="title1458">Medmatch logo</title>
  <defs
     id="defs851" />
  <metadata
     id="metadata854">
    <rdf:RDF>
      <cc:Work
         rdf:about="">
        <dc:format>image/svg+xml</dc:format>
        <dc:type
           rdf:resource="http://purl.org/dc/dcmitype/StillImage" />
        <dc:title>Medmatch logo</dc:title>
        <dc:date>2018</dc:date>
        <dc:creator>
          <cc:Agent>
            <dc:title>Douglas Xavier</dc:title>
          </cc:Agent>
        </dc:creator>
        <dc:rights>
          <cc:Agent>
            <dc:title>Copyright</dc:title>
          </cc:Agent>
        </dc:rights>
        <dc:language></dc:language>
      </cc:Work>
    </rdf:RDF>
  </metadata>
  <g
     transform="translate(-82.156655,-113.32381)"
     id="layer1">
    <g
       transform="matrix(0.06103531,0,0,0.06103531,42.968785,123.56496)"
       id="g1628">
      <g
         id="flowRoot4504-5-4"
         style="font-style:normal;font-variant:normal;font-weight:normal;font-stretch:normal;font-size:21.33333397px;line-height:1.25;font-family:Arial;-inkscape-font-specification:'Arial, Normal';font-variant-ligatures:normal;font-variant-caps:normal;font-variant-numeric:normal;font-feature-settings:normal;text-align:center;letter-spacing:0px;word-spacing:0px;writing-mode:lr-tb;text-anchor:middle;opacity:0.96030004;fill:#00bebe;fill-opacity:0.73333333;stroke:none;stroke-width:7.18110228;stroke-miterlimit:4;stroke-dasharray:none;stroke-opacity:0.73333333"
         transform="matrix(0.54496525,0,0,0.54496525,265.82898,-548.50361)"
         aria-label="M">
        <path
           id="path1545"
           style="font-style:normal;font-variant:normal;font-weight:normal;font-stretch:normal;font-size:666.66668701px;font-family:'Bauhaus 93';-inkscape-font-specification:'Bauhaus 93, ';fill:#00bebe;fill-opacity:0.73333333;stroke:none;stroke-width:7.18110228;stroke-miterlimit:4;stroke-dasharray:none;stroke-opacity:0.73333333"
           d="M 690.3623,1154.0042 V 833.69168 q 0,-59.57031 36.13281,-97.33073 36.13281,-37.76042 93.75,-37.76042 68.35938,0 105.14324,62.82553 22.46093,-33.85417 48.17708,-48.17709 25.71615,-14.64844 63.47657,-14.64844 59.8958,0 91.7969,37.76042 31.901,37.76042 31.901,108.72396 V 1154.0042 H 1028.5785 V 864.94169 q 0,-21.48438 -3.5808,-28.32032 -3.2552,-7.16146 -13.6719,-7.16146 -19.5312,0 -19.5312,33.20313 V 1154.0042 H 859.63314 V 864.94169 q 0,-21.15886 -3.58073,-28.32032 -3.58073,-7.16146 -13.9974,-7.16146 -19.53125,0 -19.53125,35.48178 v 289.06251 z" />
      </g>
      <g
         id="flowRoot4504-5-1-1-9"
         style="font-style:normal;font-variant:normal;font-weight:normal;font-stretch:normal;font-size:194.20198059px;line-height:1.25;font-family:Arial;-inkscape-font-specification:'Arial, Normal';font-variant-ligatures:normal;font-variant-caps:normal;font-variant-numeric:normal;font-feature-settings:normal;text-align:center;letter-spacing:0px;word-spacing:0px;writing-mode:lr-tb;text-anchor:middle;opacity:0.96030004;fill:#00bebe;fill-opacity:0.73333333;stroke:none;stroke-width:7.18110228;stroke-miterlimit:4;stroke-dasharray:none;stroke-opacity:0.73333333"
         transform="matrix(0.54496525,0,0,0.54496525,460.23627,-388.26091)"
         aria-label="ed">
        <path
           id="path1548"
           style="font-style:normal;font-variant:normal;font-weight:normal;font-stretch:normal;font-size:194.20198059px;font-family:'Arial Rounded MT Bold';-inkscape-font-specification:'Arial Rounded MT Bold, ';fill:#00bebe;fill-opacity:0.73333333;stroke:none;stroke-width:7.18110228;stroke-miterlimit:4;stroke-dasharray:none;stroke-opacity:0.73333333"
           d="m 892.99918,672.29406 h -50.63665 q 0.0948,8.81874 3.50853,15.55133 3.50853,6.73259 9.19804,10.1463 5.78434,3.4137 12.70658,3.4137 4.64643,0 8.43944,-1.04307 3.88783,-1.1379 7.49119,-3.41371 3.60336,-2.37063 6.63776,-5.02573 3.03441,-2.65511 7.87049,-7.20672 1.99133,-1.70685 5.68951,-1.70685 3.98266,0 6.44812,2.18098 2.46545,2.18098 2.46545,6.16363 0,3.50854 -2.74993,8.2498 -2.74993,4.64643 -8.34461,9.00839 -5.49987,4.26713 -13.93931,7.11189 -8.34461,2.84475 -19.24951,2.84475 -24.93902,0 -38.7835,-14.22377 -13.84448,-14.22378 -13.84448,-38.59386 0,-11.47384 3.41371,-21.24084 3.41371,-9.86182 9.95664,-16.87888 6.54294,-7.01706 16.12028,-10.71525 9.57735,-3.793 21.24085,-3.793 15.17203,0 25.9821,6.44811 10.90489,6.35329 16.30993,16.49958 5.40503,10.1463 5.40503,20.67189 0,9.767 -5.59468,12.70658 -5.59469,2.84475 -15.74098,2.84475 z m -50.63665,-14.6979 H 889.301 q -0.94826,-13.27553 -7.20672,-19.81847 -6.16364,-6.63776 -16.30993,-6.63776 -9.67217,0 -15.93063,6.73259 -6.16364,6.63776 -7.49119,19.72364 z" />
        <path
           id="path1550"
           style="font-style:normal;font-variant:normal;font-weight:normal;font-stretch:normal;font-size:194.20198059px;font-family:'Arial Rounded MT Bold';-inkscape-font-specification:'Arial Rounded MT Bold, ';fill:#00bebe;fill-opacity:0.73333333;stroke:none;stroke-width:7.18110228;stroke-miterlimit:4;stroke-dasharray:none;stroke-opacity:0.73333333"
           d="m 1006.9791,703.77602 v -2.56028 q -5.2154,5.97399 -10.33599,9.767 -5.02574,3.69818 -10.99972,5.59468 -5.87917,1.99133 -12.89623,1.99133 -9.29287,0 -17.25818,-3.88783 -7.87049,-3.98266 -13.65483,-11.2842 -5.78434,-7.30154 -8.81874,-17.16336 -2.93958,-9.86181 -2.93958,-21.33566 0,-24.27525 11.85314,-37.83525 11.85315,-13.56 31.19749,-13.56 11.18937,0 18.87021,3.88783 7.68084,3.79301 14.98243,11.75832 v -38.21455 q 0,-7.96531 3.1292,-12.0428 3.224,-4.07748 9.1032,-4.07748 5.8792,0 9.0084,3.79301 3.224,3.69818 3.224,10.99972 v 114.16952 q 0,7.39637 -3.4137,11.09455 -3.4137,3.69818 -8.8187,3.69818 -5.3102,0 -8.8187,-3.793 -3.4137,-3.88784 -3.4137,-10.99973 z m -50.92117,-38.0249 q 0,10.5256 3.22405,17.92196 3.31888,7.39637 9.0084,11.18938 5.68951,3.69818 12.4221,3.69818 6.82741,0 12.42209,-3.50853 5.68952,-3.60336 9.00843,-10.9049 3.4137,-7.39636 3.4137,-18.39609 0,-10.33594 -3.4137,-17.73231 -3.31891,-7.49118 -9.10325,-11.37902 -5.68951,-3.98266 -12.51692,-3.98266 -7.11189,0 -12.70658,4.07749 -5.59469,3.98266 -8.72392,11.56867 -3.0344,7.49119 -3.0344,17.44783 z" />
      </g>
      <g
         id="flowRoot4504-5-1-18-8"
         style="font-style:normal;font-variant:normal;font-weight:normal;font-stretch:normal;font-size:194.20198059px;line-height:1.25;font-family:Arial;-inkscape-font-specification:'Arial, Normal';font-variant-ligatures:normal;font-variant-caps:normal;font-variant-numeric:normal;font-feature-settings:normal;text-align:center;letter-spacing:0px;word-spacing:0px;writing-mode:lr-tb;text-anchor:middle;opacity:0.96030004;fill:#00bebe;fill-opacity:0.73333333;stroke:none;stroke-width:7.18110228;stroke-miterlimit:4;stroke-dasharray:none;stroke-opacity:0.73333333"
         transform="matrix(0.54496525,0,0,0.54496525,508.26301,-319.01646)"
         aria-label="atch">
        <path
           id="path1553"
           style="font-style:normal;font-variant:normal;font-weight:normal;font-stretch:normal;font-size:194.20198059px;font-family:'Arial Rounded MT Bold';-inkscape-font-specification:'Arial Rounded MT Bold, ';fill:#00bebe;fill-opacity:0.73333333;stroke:none;stroke-width:7.18110228;stroke-miterlimit:4;stroke-dasharray:none;stroke-opacity:0.73333333"
           d="m 800.8291,703.96567 q -9.3877,7.30154 -18.20644,10.99973 -8.72392,3.60335 -19.62881,3.60335 -9.95665,0 -17.54266,-3.88783 -7.49119,-3.98266 -11.56867,-10.71525 -4.07749,-6.73258 -4.07749,-14.60307 0,-10.62043 6.73259,-18.11161 6.73259,-7.49119 18.49091,-10.05147 2.46546,-0.56896 12.23245,-2.56028 9.767,-1.99133 16.68923,-3.60336 7.01707,-1.70685 15.17203,-4.07748 -0.47412,-10.24112 -4.1723,-14.98238 -3.60336,-4.83609 -15.07721,-4.83609 -9.86182,0 -14.88755,2.74993 -4.93091,2.74993 -8.53427,8.24979 -3.50853,5.49986 -5.02573,7.30154 -1.42238,1.70686 -6.25847,1.70686 -4.36196,0 -7.58601,-2.74993 -3.12923,-2.84476 -3.12923,-7.20672 0,-6.82741 4.83608,-13.27552 4.83609,-6.44812 15.07721,-10.62043 10.24112,-4.1723 25.50797,-4.1723 17.06853,0 26.83553,4.07748 9.76699,3.98266 13.74965,12.70657 4.07748,8.72392 4.07748,23.13735 0,9.10322 -0.0948,15.4565 0,6.35329 -0.0948,14.12896 0,7.30154 2.37063,15.26685 2.46546,7.87049 2.46546,10.1463 0,3.98266 -3.79301,7.30154 -3.69818,3.22405 -8.43944,3.22405 -3.98266,0 -7.87049,-3.69818 -3.88783,-3.79301 -8.24979,-10.9049 z m -1.70686,-37.45594 q -5.68951,2.08615 -16.5944,4.45678 -10.81007,2.2758 -14.98238,3.41371 -4.17231,1.04307 -7.96532,4.26713 -3.79301,3.12923 -3.79301,8.81874 0,5.87916 4.45679,10.05147 4.45678,4.07748 11.6635,4.07748 7.68084,0 14.12895,-3.31888 6.54294,-3.4137 9.57734,-8.72391 3.50853,-5.87917 3.50853,-19.34434 z" />
        <path
           id="path1555"
           style="font-style:normal;font-variant:normal;font-weight:normal;font-stretch:normal;font-size:194.20198059px;font-family:'Arial Rounded MT Bold';-inkscape-font-specification:'Arial Rounded MT Bold, ';fill:#00bebe;fill-opacity:0.73333333;stroke:none;stroke-width:7.18110228;stroke-miterlimit:4;stroke-dasharray:none;stroke-opacity:0.73333333"
           d="m 847.38827,615.5886 h 2.84475 v -15.55133 q 0,-6.25846 0.28448,-9.76699 0.3793,-3.60336 1.8965,-6.16364 1.5172,-2.65511 4.36196,-4.26713 2.84476,-1.70686 6.35329,-1.70686 4.93091,0 8.91357,3.69819 2.6551,2.46545 3.31888,6.06881 0.7586,3.50853 0.7586,10.05147 v 17.63748 h 9.48252 q 5.49986,0 8.34461,2.65511 2.93958,2.56028 2.93958,6.63776 0,5.21538 -4.1723,7.30154 -4.07749,2.08615 -11.75833,2.08615 h -4.83608 v 47.60225 q 0,6.06881 0.3793,9.38769 0.47412,3.22406 2.2758,5.31021 1.89651,1.99133 6.06882,1.99133 2.2758,0 6.16363,-0.7586 3.88783,-0.85343 6.06881,-0.85343 3.12924,0 5.59469,2.56028 2.56028,2.46546 2.56028,6.16364 0,6.25846 -6.82741,9.57734 -6.82742,3.31888 -19.62882,3.31888 -12.13762,0 -18.39608,-4.07748 -6.25847,-4.07748 -8.24979,-11.2842 -1.89651,-7.20671 -1.89651,-19.24951 v -49.6884 h -3.4137 q -5.59469,0 -8.53427,-2.6551 -2.93958,-2.65511 -2.93958,-6.73259 0,-4.07748 3.0344,-6.63776 3.12924,-2.65511 9.0084,-2.65511 z" />
        <path
           id="path1557"
           style="font-style:normal;font-variant:normal;font-weight:normal;font-stretch:normal;font-size:194.20198059px;font-family:'Arial Rounded MT Bold';-inkscape-font-specification:'Arial Rounded MT Bold, ';fill:#00bebe;fill-opacity:0.73333333;stroke:none;stroke-width:7.18110228;stroke-miterlimit:4;stroke-dasharray:none;stroke-opacity:0.73333333"
           d="m 1007.6428,686.51784 q 0,4.83608 -2.9395,10.33595 -2.8448,5.49986 -8.81879,10.52559 -5.87916,4.93091 -14.88756,7.96532 -9.00839,3.0344 -20.29258,3.0344 -23.99078,0 -37.45595,-13.9393 -13.46518,-14.03413 -13.46518,-37.55077 0,-15.93063 6.16364,-28.16308 6.16363,-12.23245 17.82713,-18.87022 11.6635,-6.73258 27.87861,-6.73258 10.05147,0 18.39608,2.93958 8.43944,2.93958 14.22378,7.58601 5.87912,4.64644 8.91352,9.95665 3.1293,5.21538 3.1293,9.76699 0,4.64643 -3.5086,7.87049 -3.41366,3.22406 -8.34457,3.22406 -3.22406,0 -5.40503,-1.61203 -2.08616,-1.70685 -4.74126,-5.40504 -4.74126,-7.20671 -9.95665,-10.81007 -5.12056,-3.60335 -13.08587,-3.60335 -11.47385,0 -18.49091,9.00839 -7.01707,8.91357 -7.01707,24.4649 0,7.30154 1.80168,13.46517 1.80168,6.06881 5.21539,10.43077 3.4137,4.26714 8.24979,6.54294 4.83608,2.18098 10.62042,2.18098 7.77566,0 13.27552,-3.60336 5.59469,-3.60335 9.86182,-10.99972 2.37063,-4.36196 5.12056,-6.82741 2.74993,-2.46546 6.73259,-2.46546 4.74129,0 7.87049,3.60336 3.1292,3.60336 3.1292,7.68084 z" />
        <path
           id="path1559"
           style="font-style:normal;font-variant:normal;font-weight:normal;font-stretch:normal;font-size:194.20198059px;font-family:'Arial Rounded MT Bold';-inkscape-font-specification:'Arial Rounded MT Bold, ';fill:#00bebe;fill-opacity:0.73333333;stroke:none;stroke-width:7.18110228;stroke-miterlimit:4;stroke-dasharray:none;stroke-opacity:0.73333333"
           d="m 1050.6935,590.55475 v 38.4042 q 4.9309,-5.68951 9.5773,-9.00839 4.7413,-3.31888 10.4308,-4.93091 5.6895,-1.70685 12.2324,-1.70685 9.8619,0 17.4479,4.1723 7.6808,4.17231 12.0428,12.13763 2.7499,4.64643 3.6982,10.43077 0.9482,5.68951 0.9482,13.1807 v 49.59357 q 0,7.77567 -3.6033,11.75833 -3.5086,3.98265 -9.3877,3.98265 -12.8014,0 -12.8014,-15.74098 v -43.71441 q 0,-12.4221 -3.6982,-19.05986 -3.6982,-6.73259 -14.0342,-6.73259 -6.9222,0 -12.5169,3.98266 -5.4998,3.88783 -8.2498,10.71524 -2.0861,5.78434 -2.0861,20.57707 v 34.23189 q 0,7.68084 -3.5086,11.75833 -3.4137,3.98265 -9.5773,3.98265 -12.8014,0 -12.8014,-15.74098 V 590.55475 q 0,-7.87049 3.3189,-11.75832 3.4137,-3.98266 9.4825,-3.98266 6.1636,0 9.5773,3.98266 3.5086,3.98266 3.5086,11.75832 z" />
      </g>
    </g>
  </g>
</svg>
